<svg xmlns="http://www.w3.org/2000/svg" width="22.458" height="23.859" viewBox="0 0 22.458 23.859">
  <g id="Compare_icon" data-name="Compare icon" transform="translate(0 0)">
    <g id="comparation" transform="translate(3.026 0)">
      <path id="Path_10744" data-name="Path 10744" d="M102.322-511.9a1.071,1.071,0,0,0-.4.415c-.023.061-.042,1.827-.042,3.929v3.818h-1.492v-.881c0-.834,0-.885-.107-1.03a.779.779,0,0,0-.988-.266c-.075.037-1.025.96-2.107,2.046-2.163,2.172-2.13,2.13-2.018,2.564.047.177.289.438,2.018,2.172,1.081,1.086,2.032,2.009,2.107,2.046a.874.874,0,0,0,.732-.019.859.859,0,0,0,.256-.247c.1-.144.107-.2.107-1.03v-.881H101.6c1.156,0,1.226,0,1.394-.1a.86.86,0,0,0,.275-.275.758.758,0,0,0-.275-1.021c-.172-.093-.228-.1-1.892-.1-1.636,0-1.729,0-1.874.093a.723.723,0,0,0-.336.723v.326l-.942-.946-.946-.942.946-.941.942-.946v.326a.723.723,0,0,0,.336.723c.145.089.238.093,1.9.093s1.757,0,1.9-.093a.858.858,0,0,0,.242-.242c.089-.149.093-.242.093-4.013v-3.86l4.232.014c3.212.014,4.27.033,4.4.074a1.664,1.664,0,0,1,.979.979c.042.13.065,1.454.084,5.673.023,5.2.028,5.51.107,5.631a.7.7,0,0,0,.639.312.707.707,0,0,0,.653-.336c.093-.149.093-.247.093-5.743,0-6.176.019-5.827-.3-6.461a2.9,2.9,0,0,0-1.352-1.342c-.615-.3-.368-.289-5.668-.284C104.583-511.933,102.374-511.914,102.322-511.9Z" transform="translate(-95.127 511.935)" fill="#254fe2"/>
      <path id="Path_10745" data-name="Path 10745" d="M271.187-175.931c-.331.2-.312.07-.345,2.867-.019,1.781-.042,2.568-.079,2.69a1.716,1.716,0,0,1-.979.979c-.131.042-1.184.061-4.4.075l-4.232.014v.382a3.066,3.066,0,0,1-.047.555.809.809,0,0,1-.48.5c-.093.028,1.585.042,4.512.047,5.216,0,4.955.019,5.636-.331A2.986,2.986,0,0,0,272-169.382c.345-.667.34-.625.34-3.547,0-2.517,0-2.61-.093-2.76a.859.859,0,0,0-.242-.242A.928.928,0,0,0,271.187-175.931Z" transform="translate(-252.907 191.683)" fill="#254fe2"/>
    </g>
    <g id="comparation-2" data-name="comparation" transform="translate(0 0)">
      <path id="Path_10744-2" data-name="Path 10744" d="M107.362-497.05a1.072,1.072,0,0,0,.4-.415c.023-.061.042-1.827.042-3.929v-3.817H109.3v.881c0,.834,0,.886.107,1.03a.779.779,0,0,0,.988.266c.075-.037,1.025-.96,2.107-2.046,2.163-2.172,2.13-2.13,2.018-2.564-.047-.177-.289-.438-2.018-2.172-1.081-1.086-2.032-2.009-2.107-2.046a.873.873,0,0,0-.732.019.858.858,0,0,0-.256.247c-.1.145-.107.2-.107,1.03v.881H108.08c-1.156,0-1.226,0-1.394.1a.861.861,0,0,0-.275.275.758.758,0,0,0,.275,1.021c.172.093.228.1,1.892.1,1.636,0,1.729,0,1.874-.093a.723.723,0,0,0,.336-.722v-.326l.942.946.946.941-.946.941-.942.946v-.326a.723.723,0,0,0-.336-.722c-.145-.089-.238-.093-1.9-.093s-1.757,0-1.9.093a.856.856,0,0,0-.242.242c-.089.149-.093.242-.093,4.013v3.86l-4.232-.014c-3.212-.014-4.27-.033-4.4-.075a1.664,1.664,0,0,1-.979-.979c-.042-.13-.065-1.454-.084-5.673-.023-5.2-.028-5.509-.107-5.631a.7.7,0,0,0-.639-.312.706.706,0,0,0-.653.336c-.093.149-.093.247-.093,5.743,0,6.176-.019,5.826.3,6.461a2.9,2.9,0,0,0,1.352,1.342c.615.3.368.289,5.668.284C105.1-497.013,107.311-497.031,107.362-497.05Z" transform="translate(-95.127 520.87)" fill="#254fe2"/>
      <path id="Path_10745-2" data-name="Path 10745" d="M261.772-167.918c.331-.2.312-.07.345-2.867.019-1.781.042-2.568.079-2.69a1.715,1.715,0,0,1,.979-.979c.13-.042,1.184-.061,4.4-.075l4.232-.014v-.382a3.058,3.058,0,0,1,.047-.555.809.809,0,0,1,.48-.5c.093-.028-1.585-.042-4.512-.047-5.216,0-4.955-.019-5.635.331a2.987,2.987,0,0,0-1.226,1.226c-.345.667-.34.625-.34,3.547,0,2.517,0,2.61.093,2.759a.857.857,0,0,0,.242.242A.928.928,0,0,0,261.772-167.918Z" transform="translate(-260.621 176.025)" fill="#254fe2"/>
    </g>
  </g>
</svg>
