<svg xmlns="http://www.w3.org/2000/svg" xmlns:xlink="http://www.w3.org/1999/xlink" width="40" height="40" viewBox="0 0 40 40">
  <defs>
    <clipPath id="clip-path">
      <rect id="Rectangle_17628" data-name="Rectangle 17628" width="34" height="34" fill="#fff"/>
    </clipPath>
  </defs>
  <g id="Filter" transform="translate(16049 -127)">
    <rect id="Rectangle_17629" data-name="Rectangle 17629" width="40" height="40" transform="translate(-16049 127)" fill="none"/>
    <g id="Mask_Group_183" data-name="Mask Group 183" transform="translate(-16046 130)" clip-path="url(#clip-path)">
      <g id="selective" transform="translate(3.863 0)">
        <g id="Group_1932" data-name="Group 1932" transform="translate(0.552 5.975)">
          <g id="Group_1931" data-name="Group 1931" transform="translate(0 0)">
            <path id="Path_764" data-name="Path 764" d="M127.436,142.9a1.326,1.326,0,0,0-1.172-.7h-3.771a3.785,3.785,0,0,0-7.454,0h-3.825a2.923,2.923,0,1,0-4.9,0H103.2a1.328,1.328,0,0,0-1.1,2.071l8.914,13.255v7.524a.664.664,0,0,0,.93.6l6.112-2.661a.664.664,0,0,0,.4-.6v-4.865l8.914-13.255A1.327,1.327,0,0,0,127.436,142.9Zm-8.672-2.5a2.46,2.46,0,0,1,2.367,1.8H116.4a2.461,2.461,0,0,1,2.367-1.8Zm-10-1.4a1.6,1.6,0,1,1-1.6,1.6,1.6,1.6,0,0,1,1.6-1.6Zm8.47,17.94a.664.664,0,0,0-.114.37v4.631l-4.783,2.083V157.98h2.4a.664.664,0,1,0,0-1.328h-2.7l-6.686-9.94h13.417a.664.664,0,1,0,0-1.328h-14.31l-1.25-1.86h23.062Z" transform="translate(-101.873 -137.679)" fill="#fff" stroke="#707070" stroke-width="0.2"/>
          </g>
        </g>
        <g id="Group_1934" data-name="Group 1934" transform="translate(12.755 0)">
          <g id="Group_1933" data-name="Group 1933">
            <path id="Path_765" data-name="Path 765" d="M385.865,0a2.923,2.923,0,1,0,2.923,2.923A2.923,2.923,0,0,0,385.865,0Zm0,4.517a1.6,1.6,0,1,1,1.6-1.6,1.6,1.6,0,0,1-1.6,1.6Z" transform="translate(-382.942)" fill="#fff" stroke="#707070" stroke-width="0.2"/>
          </g>
        </g>
        <g id="Group_1936" data-name="Group 1936" transform="translate(22.113 3.211)">
          <g id="Group_1935" data-name="Group 1935">
            <path id="Path_766" data-name="Path 766" d="M599.112,73.939a.664.664,0,0,0-.664.664v3.775a.664.664,0,0,0,1.328,0V74.6A.664.664,0,0,0,599.112,73.939Z" transform="translate(-598.448 -73.939)" fill="#fff" stroke="#707070" stroke-width="0.2"/>
          </g>
        </g>
        <g id="Group_1938" data-name="Group 1938" transform="translate(22.119 1.041)">
          <g id="Group_1937" data-name="Group 1937" transform="translate(0 0)">
            <path id="Path_767" data-name="Path 767" d="M599.581,23.909a.664.664,0,1,0,.2.47.664.664,0,0,0-.2-.47Z" transform="translate(-598.452 -23.72)" fill="#fff" stroke="#707070" stroke-width="0.2"/>
          </g>
        </g>
        <g id="Group_1940" data-name="Group 1940" transform="translate(9.04 0.848)">
          <g id="Group_1939" data-name="Group 1939">
            <path id="Path_768" data-name="Path 768" d="M298.016,19.512a.664.664,0,0,0-.664.664V22.9a.664.664,0,1,0,1.328,0V20.177a.664.664,0,0,0-.664-.664Z" transform="translate(-297.352 -19.512)" fill="#fff" stroke="#707070" stroke-width="0.2"/>
          </g>
        </g>
        <g id="Group_1942" data-name="Group 1942" transform="translate(0 0)">
          <g id="Group_1941" data-name="Group 1941">
            <path id="Path_769" data-name="Path 769" d="M89.692,0a.664.664,0,0,0-.658.664V5a.664.664,0,0,0,1.328,0V.664A.664.664,0,0,0,89.692,0Z" transform="translate(-89.034 0)" fill="#fff" stroke="#707070" stroke-width="0.2"/>
          </g>
        </g>
        <g id="Group_1944" data-name="Group 1944" transform="translate(0 6.825)">
          <g id="Group_1943" data-name="Group 1943" transform="translate(0 0)">
            <path id="Path_770" data-name="Path 770" d="M90.162,157.256a.664.664,0,1,0,.2.47.664.664,0,0,0-.2-.47Z" transform="translate(-89.034 -157.067)" fill="#fff" stroke="#707070" stroke-width="0.2"/>
          </g>
        </g>
        <g id="Group_1946" data-name="Group 1946" transform="translate(19.737 13.694)">
          <g id="Group_1945" data-name="Group 1945" transform="translate(0 0)">
            <path id="Path_771" data-name="Path 771" d="M544.738,315.333a.664.664,0,1,0,.2.47.664.664,0,0,0-.2-.47Z" transform="translate(-543.61 -315.144)" fill="#fff" stroke="#707070" stroke-width="0.2"/>
          </g>
        </g>
      </g>
    </g>
  </g>
</svg>
