<svg id="more_info_icon" data-name="more info icon" xmlns="http://www.w3.org/2000/svg" width="10.974" height="10.974" viewBox="0 0 10.974 10.974">
  <g id="Group_3373" data-name="Group 3373">
    <g id="Path_11106" data-name="Path 11106" fill="none">
      <path d="M5.487,0A5.487,5.487,0,1,1,0,5.487,5.487,5.487,0,0,1,5.487,0Z" stroke="none"/>
      <path d="M 5.487213134765625 1.000002861022949 C 3.012953281402588 1.000002861022949 1.000002861022949 3.012953281402588 1.000002861022949 5.487213134765625 C 1.000002861022949 7.96147346496582 3.012953281402588 9.974423408508301 5.487213134765625 9.974423408508301 C 7.96147346496582 9.974423408508301 9.974423408508301 7.96147346496582 9.974423408508301 5.487213134765625 C 9.974423408508301 3.012953281402588 7.96147346496582 1.000002861022949 5.487213134765625 1.000002861022949 M 5.487213134765625 2.86102294921875e-06 C 8.51771354675293 2.86102294921875e-06 10.9744234085083 2.45671272277832 10.9744234085083 5.487213134765625 C 10.9744234085083 8.51771354675293 8.51771354675293 10.9744234085083 5.487213134765625 10.9744234085083 C 2.45671272277832 10.9744234085083 2.86102294921875e-06 8.51771354675293 2.86102294921875e-06 5.487213134765625 C 2.86102294921875e-06 2.45671272277832 2.45671272277832 2.86102294921875e-06 5.487213134765625 2.86102294921875e-06 Z" stroke="none" fill="#8091a5"/>
    </g>
  </g>
  <g id="Group_3374" data-name="Group 3374" transform="translate(3.502 2.444)">
    <path id="Path_1153" data-name="Path 1153" d="M313.423,68.966a1.955,1.955,0,0,0-2.125,1.9.623.623,0,0,0,1.244,0,.742.742,0,0,1,1.48-.052.713.713,0,0,1-.508.728,1.187,1.187,0,0,0-.853,1.123V73.1a.623.623,0,0,0,1.244,0v-.426a1.909,1.909,0,0,0,1.358-1.945A1.952,1.952,0,0,0,313.423,68.966Z" transform="translate(-311.298 -68.961)" fill="#8091a5"/>
    <path id="Path_1154" data-name="Path 1154" d="M344.61,201.639a.451.451,0,0,0-.451.451v.033a.451.451,0,0,0,.9,0v-.033A.451.451,0,0,0,344.61,201.639Z" transform="translate(-342.625 -196.488)" fill="#8091a5"/>
  </g>
</svg>
