<svg xmlns="http://www.w3.org/2000/svg" xmlns:xlink="http://www.w3.org/1999/xlink" width="139.001" height="90" viewBox="0 0 139.001 90">
  <defs>
    <filter id="Rectangle_17889" x="5.001" y="0" width="134" height="90" filterUnits="userSpaceOnUse">
      <feOffset dy="3" input="SourceAlpha"/>
      <feGaussianBlur stdDeviation="3" result="blur"/>
      <feFlood flood-opacity="0.161"/>
      <feComposite operator="in" in2="blur"/>
      <feComposite in="SourceGraphic"/>
    </filter>
  </defs>
  <g id="Nav_Bar_side_shape" data-name="Nav Bar side shape" transform="translate(-1790.393 -271)">
    <g transform="matrix(1, 0, 0, 1, 1790.39, 271)" filter="url(#Rectangle_17889)">
      <path id="Rectangle_17889-2" data-name="Rectangle 17889" d="M0,0H116a0,0,0,0,1,0,0V59a13,13,0,0,1-13,13H0a0,0,0,0,1,0,0V0A0,0,0,0,1,0,0Z" transform="translate(14 6)" fill="#fff"/>
    </g>
    <path id="Path_10916" data-name="Path 10916" d="M8.521-.17,18,15H0Z" transform="matrix(0.848, 0.53, -0.53, 0.848, 1798.342, 308.318)" fill="#fff"/>
  </g>
</svg>
