<svg xmlns="http://www.w3.org/2000/svg" width="15.123" height="19.656" viewBox="0 0 15.123 19.656">
  <path id="Icon_awesome-pinterest-p" data-name="Icon awesome-pinterest-p" d="M8.034.457C3.993.457,0,3.151,0,7.51c0,2.772,1.56,4.348,2.5,4.348.39,0,.614-1.087.614-1.394,0-.366-.933-1.146-.933-2.67A5.322,5.322,0,0,1,7.715,2.383c2.682,0,4.667,1.524,4.667,4.324,0,2.091-.839,6.014-3.556,6.014A1.749,1.749,0,0,1,7.006,11c0-1.489,1.04-2.93,1.04-4.466,0-2.607-3.7-2.134-3.7,1.016a4.627,4.627,0,0,0,.378,2c-.543,2.339-1.654,5.825-1.654,8.235,0,.744.106,1.477.177,2.221.134.15.067.134.272.059,1.985-2.717,1.914-3.249,2.812-6.805A3.194,3.194,0,0,0,9.062,14.67c4.182,0,6.061-4.076,6.061-7.75C15.123,3.009,11.744.457,8.034.457Z" transform="translate(0 -0.457)"/>
</svg>
