<svg id="protection_icon" data-name="protection icon" xmlns="http://www.w3.org/2000/svg" width="31.881" height="31.866" viewBox="0 0 31.881 31.866">
  <path id="XMLID_949_" d="M135,46.865v1.875h6.564V31.979C137.863,32.9,135,39.215,135,46.865Z" transform="translate(-126.561 -29.987)" fill="#8091a5"/>
  <path id="XMLID_1272_" d="M270,31.979V48.741h6.564V46.865C276.564,39.215,273.7,32.9,270,31.979Z" transform="translate(-253.122 -29.987)" fill="#8091a5"/>
  <path id="XMLID_1273_" d="M183.751,310.43a.938.938,0,0,1-1.875,0v-.938H180v.938a2.813,2.813,0,0,0,5.626,0V300.116h-1.875Z" transform="translate(-168.748 -281.363)" fill="#8091a5"/>
  <path id="XMLID_1274_" d="M241.875,2.108V.116H240V2.108A3.845,3.845,0,0,1,241.875,2.108Z" transform="translate(-224.997 -0.116)" fill="#8091a5"/>
  <path id="XMLID_1275_" d="M10.681,44.274A15.967,15.967,0,0,0,0,59.329v.938H6.564V58.392a26.181,26.181,0,0,1,2.4-11.447A13.578,13.578,0,0,1,10.681,44.274Z" transform="translate(0 -41.514)" fill="#8091a5"/>
  <path id="XMLID_1276_" d="M345.151,48.058a15.882,15.882,0,0,0-6.012-3.784,13.573,13.573,0,0,1,1.722,2.67,26.18,26.18,0,0,1,2.4,11.447v1.875h6.564v-.938A15.836,15.836,0,0,0,345.151,48.058Z" transform="translate(-317.939 -41.514)" fill="#8091a5"/>
</svg>
