<svg xmlns="http://www.w3.org/2000/svg" xmlns:xlink="http://www.w3.org/1999/xlink" width="32" height="32" viewBox="0 0 32 32">
  <defs>
    <clipPath id="clip-path">
      <rect id="Rectangle_17628" data-name="Rectangle 17628" width="26" height="26" transform="translate(-16046 130)" fill="#fc8666"/>
    </clipPath>
  </defs>
  <g id="Search_Icon" data-name="Search Icon" transform="translate(16049 -127)">
    <rect id="Rectangle_17629" data-name="Rectangle 17629" width="32" height="32" transform="translate(-16049 127)" fill="none"/>
    <g id="Mask_Group_180" data-name="Mask Group 180" clip-path="url(#clip-path)">
      <path id="Search" d="M24.461,26a1.543,1.543,0,0,1-1.111-.476l-7.11-7.115h-.007a9.976,9.976,0,0,1-5.981,1.978h-.038A10.232,10.232,0,0,1,2.951,2.961,10.172,10.172,0,0,1,10.1,0h.044A10.273,10.273,0,0,1,20.352,10.228a10,10,0,0,1-1.95,6l7.121,7.121A1.535,1.535,0,0,1,24.461,26ZM10.108,2.034A8.157,8.157,0,0,0,10.2,18.348h.032a8.157,8.157,0,0,0-.088-16.314Z" transform="translate(-16045.999 130.002)" fill="#8091a5"/>
    </g>
  </g>
</svg>
