<svg xmlns="http://www.w3.org/2000/svg" width="17.376" height="20" viewBox="0 0 17.376 20">
  <path id="Icon_simple-tiktok" data-name="Icon simple-tiktok" d="M11.494.017C12.586,0,13.669.008,14.753,0a5.191,5.191,0,0,0,1.458,3.475,5.877,5.877,0,0,0,3.533,1.492V8.325a8.92,8.92,0,0,1-3.5-.808,10.3,10.3,0,0,1-1.35-.775c-.008,2.433.008,4.867-.017,7.292a6.365,6.365,0,0,1-1.125,3.283,6.208,6.208,0,0,1-4.925,2.675,6.076,6.076,0,0,1-3.4-.858,6.284,6.284,0,0,1-3.042-4.758c-.017-.417-.025-.833-.008-1.242A6.273,6.273,0,0,1,9.653,7.567c.017,1.233-.033,2.467-.033,3.7a2.859,2.859,0,0,0-3.65,1.767,3.306,3.306,0,0,0-.117,1.342,2.836,2.836,0,0,0,2.917,2.392,2.8,2.8,0,0,0,2.308-1.342,1.923,1.923,0,0,0,.342-.883c.083-1.492.05-2.975.058-4.467.008-3.358-.008-6.708.017-10.058Z" transform="translate(-2.369)"/>
</svg>
