<svg xmlns="http://www.w3.org/2000/svg" xmlns:xlink="http://www.w3.org/1999/xlink" width="40" height="40" viewBox="0 0 40 40">
  <defs>
    <clipPath id="clip-path">
      <rect id="Rectangle_17628" data-name="Rectangle 17628" width="32" height="32" transform="translate(0.294 0.294)" fill="#fc8666"/>
    </clipPath>
  </defs>
  <g id="video_Icon" data-name="video Icon" transform="translate(16049 -127)">
    <rect id="Rectangle_17629" data-name="Rectangle 17629" width="40" height="40" transform="translate(-16049 127)" fill="none"/>
    <g id="Mask_Group_185" data-name="Mask Group 185" transform="translate(-16045.294 130.706)" clip-path="url(#clip-path)">
      <g id="road_show_icon" data-name="road show icon" transform="translate(0 0.145)">
        <rect id="Rectangle_17531" data-name="Rectangle 17531" width="31.814" height="31.831" fill="none"/>
        <path id="Path_10887" data-name="Path 10887" d="M22.415,2.06a1.469,1.469,0,0,1,1.46,1.477v6.2l7.611-5.389a.723.723,0,0,1,.757-.05.739.739,0,0,1,.393.656V22.8a.739.739,0,0,1-.393.656.723.723,0,0,1-.757-.05l-7.611-5.391v6.2a1.469,1.469,0,0,1-1.46,1.477H1.975a1.469,1.469,0,0,1-1.46-1.477V3.537A1.469,1.469,0,0,1,1.975,2.06Zm-1.46,2.954H3.435V22.736H20.956ZM9.859,9.192a.579.579,0,0,1,.314.092l6.359,4.094a.594.594,0,0,1,0,1l-6.359,4.1a.578.578,0,0,1-.6.019.592.592,0,0,1-.3-.519V9.784a.588.588,0,0,1,.584-.59Zm19.857.017-5.84,4.136V14.4l5.84,4.136Z" transform="translate(-0.515 2.193)" fill="#254fe2"/>
      </g>
    </g>
  </g>
</svg>
